<svg xmlns="http://www.w3.org/2000/svg" viewBox="230 430 180 180">
  <defs>
    <style>
      .st1 { fill: #fffefe; }
      .st2 { fill: #e71f19; }
    </style>
  </defs>
  <!-- 赤い丸角ベース -->
  <path class="st2" d="M393.82,460.36c-.83,0-.83,1.51-.83,1.51,0,17.04-13.81,30.86-30.86,30.86h-113.07c-7.16,0-12.96,5.8-12.96,12.96v97.89h145.52c7.16,0,12.95-5.8,12.95-12.96v-128.74s0-1.51-.75-1.51Z"/>
  <!-- 液体スプラッシュ -->
  <path class="st2" d="M374.41,444.17c1.73,5.62,7.78,5.3,12.92,7.21,3.32,1.24,5.05,5.18,5.49,6.24.34.82,1.2,1.25,1.14-.25,0,0-.29-5.25-1.56-9.94-1.12-4.14-2.84-8-2.84-8,0,0-3.25-6.75-10.2-4.61-6.95,2.14-4.95,9.36-4.95,9.36Z"/>
  <path class="st2" d="M379.8,460.63c2.67,1.66,4.99-.61,7.73-1.65,1.77-.67,3.85.36,4.37.67.59.35,1.1-.2.43-.67l-8.33-5.15s-3.46-2.02-5.5,1.29c-2.05,3.31,1.3,5.51,1.3,5.51Z"/>
  <!-- 液体ドット -->
  <path class="st2" d="M369.92,445.64c0,1.6-1.29,2.89-2.89,2.89s-2.89-1.29-2.89-2.89,1.3-2.89,2.89-2.89,2.89,1.29,2.89,2.89Z"/>
  <path class="st2" d="M372.66,438.31c0,.76-.61,1.37-1.37,1.37s-1.37-.6-1.37-1.37.61-1.37,1.37-1.37,1.37.62,1.37,1.37Z"/>
  <path class="st2" d="M374.91,450.55c0,.76-.61,1.37-1.36,1.37s-1.37-.61-1.37-1.37.61-1.36,1.37-1.36,1.36.6,1.36,1.36Z"/>
  <!-- 白文字 Liquid -->
  <path class="st1" d="M250.65,517.17c0-2.47,1.62-4.14,4.14-4.14s4.14,1.67,4.14,4.14v25.91h13.84c2.38,0,4.29,1.21,4.29,3.49s-1.92,3.49-4.29,3.49h-17.27c-2.93,0-4.85-1.17-4.85-4.86v-28.02Z"/>
  <path class="st1" d="M281.66,512.83c2.12,0,3.84,1.71,3.84,3.84s-1.72,3.84-3.84,3.84-3.84-1.72-3.84-3.84,1.72-3.84,3.84-3.84ZM277.97,526.67c0-1.98.81-3.69,3.68-3.69s3.69,1.71,3.69,3.69v20.35c0,1.97-.81,3.68-3.69,3.68s-3.68-1.71-3.68-3.68v-20.35Z"/>
  <path class="st1" d="M313.58,556.81c0,2.43-1.47,3.69-3.69,3.69s-3.69-1.27-3.69-3.69v-9.85h-.1c-1.36,2.38-3.89,3.73-7.27,3.73-7.78,0-11.37-6.62-11.37-13.69,0-9.54,5.41-14.04,11.57-14.04,3.59,0,6.57,1.52,7.78,4.65h.1v-1.17c0-2.27,1.16-3.48,3.33-3.48s3.33,1.21,3.33,3.48v30.35ZM300.7,544.95c4.5.05,5.91-4.39,5.91-8.19,0-4.18-1.62-8.03-5.91-8.03-3.94.1-5.86,3.69-5.86,8.03,0,3.44,1.16,8.19,5.86,8.19Z"/>
  <path class="st1" d="M341.41,547.02c0,2.22-1.02,3.68-3.33,3.68s-3.33-1.46-3.33-3.68v-.96h-.11c-2.07,2.73-4.75,4.64-8.93,4.64-4.44,0-9.3-2.22-9.3-9.69v-14.34c0-1.98.81-3.69,3.69-3.69s3.69,1.71,3.69,3.69v12.87c0,2.98,1.46,5.11,4.64,5.11,2.57,0,5.61-2.12,5.61-5.81v-12.17c0-1.98.81-3.69,3.69-3.69s3.69,1.71,3.69,3.69v20.35Z"/>
  <path class="st1" d="M348.32,512.83c2.12,0,3.84,1.71,3.84,3.84s-1.71,3.84-3.84,3.84-3.83-1.72-3.83-3.84,1.72-3.84,3.83-3.84ZM344.63,526.67c0-1.98.81-3.69,3.68-3.69s3.69,1.71,3.69,3.69v20.35c0,1.97-.81,3.68-3.69,3.68s-3.68-1.71-3.68-3.68v-20.35Z"/>
  <path class="st1" d="M381.24,547.22c0,2.27-1.06,3.49-3.33,3.49s-3.33-1.21-3.33-3.49v-1.16h-.1c-1.21,3.13-4.19,4.64-7.77,4.64-6.16,0-11.57-4.49-11.57-14.04,0-7.06,3.58-13.69,11.36-13.69,3.28,0,5.81,1.36,7.27,3.74h.1v-10c0-2.42,1.46-3.68,3.69-3.68s3.69,1.26,3.69,3.68v30.5ZM368.37,544.95c4.29,0,5.91-3.84,5.91-8.03,0-3.78-1.41-8.23-5.91-8.18-4.7,0-5.86,4.74-5.86,8.18,0,4.35,1.92,7.93,5.86,8.03Z"/>
  <!-- 白文字 Block -->
  <path class="st1" d="M251.03,554.59h18.45c8.88,0,10.76,5,10.76,8.45s-1.65,5.24-4.15,6.61c3.02,1.04,5.85,3.45,5.85,8.4,0,6.75-5.85,10.25-11.8,10.25h-19.12v-33.7ZM261.41,567.71h5.48c2.17,0,3.54-.61,3.54-2.78,0-1.7-1.41-2.31-3.54-2.31h-5.48v5.09ZM261.41,580.27h6.09c2.17,0,4.06-.62,4.06-3.22,0-1.98-1.18-3.07-3.63-3.07h-6.52v6.29Z"/>
  <path class="st1" d="M284.16,554.59h9.34v33.7h-9.34v-33.7Z"/>
  <path class="st1" d="M310.22,588.91c-9.21,0-13.36-6.09-13.36-12.89s4.15-12.84,13.36-12.84,13.36,6.04,13.36,12.84-4.15,12.89-13.36,12.89ZM310.22,569.97c-3.55,0-4.02,3.45-4.02,6.04s.47,6.09,4.02,6.09,4.01-3.49,4.01-6.09-.47-6.04-4.01-6.04Z"/>
  <path class="st1" d="M342.5,573.1c-.09-.99-.43-1.8-1.04-2.32-.57-.51-1.37-.8-2.36-.8-3.59,0-4.1,3.12-4.1,6.09s.52,6.04,4.1,6.04c2.03,0,3.45-1.65,3.63-3.59h8.92c-.9,6.66-6.14,10.39-12.74,10.39-7.36,0-13.27-5.1-13.27-12.84s5.91-12.89,13.27-12.89c6.42,0,11.89,3.16,12.46,9.92h-8.88Z"/>
  <path class="st1" d="M354.77,554.59h9.35v16.28l5.95-7.08h10.57l-8.73,9.25,10.1,15.25h-11.23l-5-8.88-1.65,1.79v7.09h-9.35v-33.7Z"/>
</svg>
