<?xml version="1.0" encoding="UTF-8"?>
<svg id="_レイヤー_1" data-name="レイヤー_1" xmlns="http://www.w3.org/2000/svg" version="1.1" viewBox="0 0 595.28 841.89">
  <!-- Generator: Adobe Illustrator 29.7.1, SVG Export Plug-In . SVG Version: 2.1.1 Build 8)  -->
  <defs>
    <style>
      .st0 {
        fill: #fff;
      }

      .st1 {
        fill: #fffefe;
      }

      .st2 {
        fill: #e71f19;
      }
    </style>
  </defs>
  <rect class="st0" x="191.89" y="407.95" width="247.83" height="247.83" rx="52.09" ry="52.09"/>
  <g>
    <g>
      <path class="st2" d="M237.67,606.79h1.26l2.18,5.8,2.18-5.8h1.26v6.9h-.87v-5.75h-.02l-2.15,5.75h-.78l-2.16-5.75h-.02v5.75h-.87v-6.9Z"/>
      <path class="st2" d="M248.09,608.58c1.59,0,2.43,1.15,2.43,2.62s-.84,2.61-2.43,2.61-2.42-1.15-2.42-2.61.84-2.62,2.42-2.62ZM248.09,613.08c.86,0,1.56-.68,1.56-1.89s-.7-1.89-1.56-1.89-1.56.67-1.56,1.89.7,1.89,1.56,1.89Z"/>
      <path class="st2" d="M252.62,608.69h.99v.73h-.99v3.1c0,.38.1.45.62.45h.38v.72h-.63c-.85,0-1.19-.18-1.19-1.09v-3.18h-.85v-.73h.85v-1.5h.82v1.5Z"/>
      <path class="st2" d="M255.4,607.79h-.82v-1.01h.82v1.01ZM254.58,608.69h.82v5h-.82v-5Z"/>
      <path class="st2" d="M258.83,608.58c1.58,0,2.43,1.15,2.43,2.62s-.84,2.61-2.43,2.61-2.43-1.15-2.43-2.61.84-2.62,2.43-2.62ZM258.83,613.08c.86,0,1.56-.68,1.56-1.89s-.7-1.89-1.56-1.89-1.56.67-1.56,1.89.7,1.89,1.56,1.89Z"/>
      <path class="st2" d="M262.22,608.69h.78v.8h.02c.35-.62.91-.91,1.62-.91,1.32,0,1.72.75,1.72,1.83v3.29h-.82v-3.39c0-.61-.39-1-1.01-1-1,0-1.48.66-1.48,1.56v2.83h-.82v-5Z"/>
      <path class="st2" d="M276.74,613.27c0,1.62-.74,2.45-2.32,2.45-.94,0-2.02-.37-2.07-1.47h.82c.04.6.76.81,1.3.81,1.08,0,1.5-.77,1.5-1.89v-.33h-.02c-.27.61-.93.91-1.56.91-1.49,0-2.24-1.17-2.24-2.53,0-1.18.58-2.64,2.31-2.64.63,0,1.19.28,1.49.83h0,.02v-.72h.77v4.58ZM275.93,611.09c0-.88-.39-1.79-1.42-1.79s-1.48.86-1.48,1.81.33,1.91,1.41,1.91,1.49-1,1.49-1.93Z"/>
      <path class="st2" d="M277.94,608.69h.77v1.05h.02c.39-.8.95-1.2,1.83-1.17v.87c-1.32,0-1.81.76-1.81,2.02v2.22h-.82v-5Z"/>
      <path class="st2" d="M285.62,613.67c-.14.09-.33.14-.59.14-.43,0-.7-.24-.7-.77-.46.53-1.07.77-1.76.77-.91,0-1.65-.41-1.65-1.4,0-1.13.84-1.37,1.69-1.54.91-.17,1.68-.12,1.68-.73,0-.72-.59-.83-1.11-.83-.7,0-1.21.21-1.25.95h-.82c.05-1.24,1.01-1.67,2.12-1.67.9,0,1.88.21,1.88,1.37v2.57c0,.39,0,.57.26.57.07,0,.14-.02.25-.05v.64ZM284.29,611.11c-.32.23-.94.24-1.49.34-.54.1-1.01.29-1.01.9,0,.54.47.74.97.74,1.08,0,1.52-.68,1.52-1.13v-.84Z"/>
      <path class="st2" d="M286.41,608.69h.82v.68h.02c.27-.55.91-.79,1.6-.79,1.54,0,2.3,1.22,2.3,2.63s-.75,2.6-2.29,2.6c-.51,0-1.24-.19-1.61-.78h-.02v2.58h-.82v-6.91ZM288.73,609.3c-1.1,0-1.52.95-1.52,1.88,0,.99.44,1.9,1.57,1.9s1.5-.96,1.5-1.94-.49-1.84-1.55-1.84Z"/>
      <path class="st2" d="M292.11,606.79h.82v2.64h.02c.27-.6.98-.85,1.57-.85,1.32,0,1.72.75,1.72,1.83v3.29h-.82v-3.39c0-.61-.39-1-1.02-1-1,0-1.48.66-1.48,1.56v2.83h-.82v-6.9Z"/>
      <path class="st2" d="M298.36,607.79h-.82v-1.01h.82v1.01ZM297.54,608.69h.82v5h-.82v-5Z"/>
      <path class="st2" d="M303.03,610.29c-.13-.63-.56-.99-1.24-.99-1.19,0-1.56.94-1.56,1.95,0,.92.42,1.83,1.46,1.83.79,0,1.27-.46,1.37-1.22h.84c-.18,1.22-.95,1.94-2.2,1.94-1.53,0-2.34-1.06-2.34-2.56s.77-2.67,2.36-2.67c1.13,0,2.04.53,2.15,1.72h-.85Z"/>
      <path class="st2" d="M305.33,612.12c.03.73.67.97,1.35.97.51,0,1.21-.12,1.21-.75s-.82-.75-1.64-.93c-.81-.18-1.63-.45-1.63-1.4,0-1.01,1-1.42,1.87-1.42,1.1,0,1.98.35,2.05,1.56h-.82c-.06-.63-.62-.84-1.16-.84-.49,0-1.06.14-1.06.64,0,.59.86.69,1.63.87.82.18,1.64.45,1.64,1.42,0,1.19-1.11,1.58-2.13,1.58-1.12,0-2.07-.45-2.12-1.69h.82Z"/>
      <path class="st2" d="M317.34,613.69h-1.04l-2.44-6.9h.99l1.97,5.98h.02l1.99-5.98h.96l-2.46,6.9Z"/>
      <path class="st2" d="M320.53,606.79h4.54v.77h-3.62v2.2h3.17v.77h-3.17v3.16h-.92v-6.9Z"/>
      <path class="st2" d="M327.72,610.14l-2.27-3.35h1.1l1.72,2.7,1.8-2.7h1.02l-2.28,3.35,2.43,3.55h-1.12l-1.86-2.85-1.91,2.85h-1.04l2.41-3.55Z"/>
      <path class="st2" d="M339.53,613.69h-1.04l-2.44-6.9h.99l1.98,5.98h.02l1.99-5.98h.96l-2.46,6.9Z"/>
      <path class="st2" d="M343.46,607.79h-.83v-1.01h.83v1.01ZM342.63,608.69h.83v5h-.83v-5Z"/>
      <path class="st2" d="M349.2,613.69h-.82v-.68h-.02c-.27.55-.91.79-1.59.79-1.54,0-2.3-1.22-2.3-2.63s.75-2.6,2.28-2.6c.51,0,1.25.19,1.61.79h.02v-2.57h.82v6.9ZM346.88,613.08c1.1,0,1.53-.95,1.53-1.89s-.44-1.89-1.57-1.89-1.5.96-1.5,1.93.49,1.85,1.55,1.85Z"/>
      <path class="st2" d="M354.73,612.1c-.22,1.1-1.01,1.7-2.14,1.7-1.6,0-2.35-1.1-2.4-2.63,0-1.5.99-2.6,2.35-2.6,1.77,0,2.31,1.65,2.26,2.86h-3.74c-.03.87.47,1.65,1.56,1.65.68,0,1.15-.33,1.3-.98h.81ZM353.94,610.71c-.04-.78-.63-1.41-1.44-1.41-.86,0-1.37.64-1.44,1.41h2.88Z"/>
      <path class="st2" d="M357.81,608.58c1.58,0,2.42,1.15,2.42,2.62s-.84,2.61-2.42,2.61-2.43-1.15-2.43-2.61.84-2.62,2.43-2.62ZM357.81,613.08c.86,0,1.55-.68,1.55-1.89s-.7-1.89-1.55-1.89-1.56.67-1.56,1.89.7,1.89,1.56,1.89Z"/>
      <path class="st2" d="M370.3,612.1c-.22,1.1-1.02,1.7-2.14,1.7-1.6,0-2.35-1.1-2.4-2.63,0-1.5.99-2.6,2.35-2.6,1.77,0,2.31,1.65,2.26,2.86h-3.74c-.03.87.47,1.65,1.56,1.65.68,0,1.15-.33,1.3-.98h.81ZM369.5,610.71c-.04-.78-.63-1.41-1.44-1.41-.86,0-1.37.64-1.43,1.41h2.87Z"/>
      <path class="st2" d="M375.69,613.69h-.82v-.68h-.02c-.27.55-.91.79-1.6.79-1.53,0-2.3-1.22-2.3-2.63s.75-2.6,2.28-2.6c.52,0,1.25.19,1.62.79h.02v-2.57h.82v6.9ZM373.37,613.08c1.11,0,1.53-.95,1.53-1.89s-.45-1.89-1.58-1.89-1.5.96-1.5,1.93.49,1.85,1.54,1.85Z"/>
      <path class="st2" d="M377.82,607.79h-.82v-1.01h.82v1.01ZM377,608.69h.82v5h-.82v-5Z"/>
      <path class="st2" d="M380.24,608.69h.99v.73h-.99v3.1c0,.38.1.45.62.45h.37v.72h-.62c-.85,0-1.19-.18-1.19-1.09v-3.18h-.85v-.73h.85v-1.5h.82v1.5Z"/>
      <path class="st2" d="M383.02,607.79h-.82v-1.01h.82v1.01ZM382.19,608.69h.82v5h-.82v-5Z"/>
      <path class="st2" d="M384.29,608.69h.78v.8h.02c.35-.62.91-.91,1.62-.91,1.32,0,1.72.75,1.72,1.83v3.29h-.82v-3.39c0-.61-.38-1-1.01-1-1,0-1.48.66-1.48,1.56v2.83h-.82v-5Z"/>
      <path class="st2" d="M393.98,613.27c0,1.62-.74,2.45-2.32,2.45-.94,0-2.02-.37-2.07-1.47h.82c.04.6.75.81,1.29.81,1.08,0,1.5-.77,1.5-1.89v-.33h-.02c-.27.61-.93.91-1.55.91-1.49,0-2.24-1.17-2.24-2.53,0-1.18.59-2.64,2.31-2.64.63,0,1.19.28,1.49.83h-.01.02v-.72h.78v4.58ZM393.16,611.09c0-.88-.38-1.79-1.42-1.79s-1.48.86-1.48,1.81.33,1.91,1.41,1.91,1.49-1,1.49-1.93Z"/>
      <path class="st2" d="M239.53,616.28h1.01l2.7,6.9h-1.01l-.75-2.08h-2.92l-.78,2.08h-.95l2.7-6.9ZM238.84,620.33h2.34l-1.15-3.22h-.02l-1.17,3.22Z"/>
      <path class="st2" d="M243.78,618.19h.78v.79h.02c.35-.62.91-.91,1.62-.91,1.31,0,1.72.75,1.72,1.83v3.29h-.82v-3.38c0-.61-.39-1.01-1.01-1.01-1,0-1.48.67-1.48,1.56v2.82h-.82v-4.99Z"/>
      <path class="st2" d="M250.02,617.29h-.82v-1.01h.82v1.01ZM249.2,618.19h.82v4.99h-.82v-4.99Z"/>
      <path class="st2" d="M251.3,618.19h.78v.73h.02c.37-.56.93-.85,1.62-.85.61,0,1.17.25,1.37.85.34-.53.93-.85,1.57-.85,1,0,1.66.42,1.66,1.45v3.66h-.82v-3.27c0-.62-.16-1.11-.97-1.11s-1.3.5-1.3,1.27v3.11h-.82v-3.27c0-.65-.2-1.11-.94-1.11-.98,0-1.33.9-1.33,1.27v3.11h-.82v-4.99Z"/>
      <path class="st2" d="M263.97,623.17c-.15.08-.33.13-.59.13-.43,0-.7-.23-.7-.77-.45.53-1.06.77-1.75.77-.91,0-1.66-.4-1.66-1.4,0-1.13.84-1.38,1.69-1.54.91-.17,1.68-.11,1.68-.73,0-.72-.59-.83-1.11-.83-.69,0-1.21.21-1.24.95h-.82c.05-1.24,1.01-1.68,2.12-1.68.9,0,1.87.21,1.87,1.37v2.57c0,.39,0,.56.26.56.07,0,.14,0,.25-.05v.64ZM262.63,620.6c-.31.23-.93.24-1.48.34-.55.1-1.01.29-1.01.9,0,.55.46.74.97.74,1.09,0,1.52-.67,1.52-1.13v-.84Z"/>
      <path class="st2" d="M265.87,618.19h1v.72h-1v3.1c0,.38.11.44.62.44h.38v.72h-.63c-.85,0-1.19-.17-1.19-1.09v-3.18h-.85v-.72h.85v-1.5h.82v1.5Z"/>
      <path class="st2" d="M268.65,617.29h-.82v-1.01h.82v1.01ZM267.83,618.19h.82v4.99h-.82v-4.99Z"/>
      <path class="st2" d="M272.08,618.07c1.58,0,2.43,1.15,2.43,2.62s-.84,2.61-2.43,2.61-2.43-1.15-2.43-2.61.84-2.62,2.43-2.62ZM272.08,622.57c.86,0,1.56-.67,1.56-1.88s-.7-1.89-1.56-1.89-1.56.67-1.56,1.89.7,1.88,1.56,1.88Z"/>
      <path class="st2" d="M275.47,618.19h.78v.79h.02c.35-.62.91-.91,1.63-.91,1.32,0,1.72.75,1.72,1.83v3.29h-.82v-3.38c0-.61-.39-1.01-1.01-1.01-1,0-1.48.67-1.48,1.56v2.82h-.82v-4.99Z"/>
      <path class="st2" d="M287.16,619.27c.13,0,.25,0,.36,0,.7,0,1.31-.37,1.31-1.11s-.52-1.1-1.22-1.1c-.9,0-1.29.68-1.29,1.48h-.82c.05-1.3.75-2.21,2.12-2.21,1.19,0,2.09.57,2.09,1.84,0,.6-.43,1.12-.95,1.36v.02c.84.18,1.24.84,1.24,1.66,0,1.37-1.07,2.09-2.36,2.09-1.39,0-2.31-.82-2.28-2.23h.82c.03.89.52,1.51,1.46,1.51.81,0,1.49-.49,1.49-1.32s-.64-1.32-1.46-1.32c-.16,0-.33.02-.49.03v-.7Z"/>
      <path class="st2" d="M291.19,616.28h2.37c2.13,0,3.32,1.06,3.32,3.29s-1.01,3.61-3.32,3.61h-2.37v-6.9ZM292.1,622.41h1.53c.63,0,2.32-.17,2.32-2.71,0-1.64-.61-2.63-2.3-2.63h-1.55v5.35Z"/>
      <path class="st2" d="M298.04,622.11h1.07v.98c0,.73-.32,1.3-1.06,1.52v-.48c.44-.15.58-.64.56-.94h-.57v-1.07Z"/>
      <path class="st2" d="M300.35,618.76c-.07-1.39.75-2.43,2.2-2.43,1.2,0,2.14.7,2.14,1.97,0,1.21-.81,1.82-1.66,2.34-.86.53-1.76.96-1.93,1.81h3.52v.72h-4.48c.13-1.62.95-2.2,1.93-2.8,1.16-.71,1.75-1.14,1.75-2.08,0-.75-.6-1.24-1.33-1.24-.96,0-1.36.88-1.34,1.7h-.82Z"/>
      <path class="st2" d="M306.05,616.28h2.37c2.13,0,3.32,1.06,3.32,3.29s-1.02,3.61-3.32,3.61h-2.37v-6.9ZM306.97,622.41h1.53c.63,0,2.32-.17,2.32-2.71,0-1.64-.61-2.63-2.3-2.63h-1.55v5.35Z"/>
      <path class="st2" d="M318.02,622.33c-.53.72-1.4,1.02-2.21,1.02-2.06,0-3.29-1.68-3.29-3.48,0-2.01,1.1-3.76,3.29-3.76,1.51,0,2.71.68,2.97,2.29h-.92c-.18-1.04-1.03-1.52-2.05-1.52-1.67,0-2.37,1.45-2.37,2.93s.83,2.75,2.37,2.75c1.42,0,2.27-.99,2.21-2.25h-2.2v-.77h3.03v3.63h-.58l-.25-.85Z"/>
      <path class="st2" d="M320.03,618.19h.77v1.05h.02c.39-.8.94-1.2,1.83-1.17v.87c-1.33,0-1.81.75-1.81,2.02v2.23h-.82v-4.99Z"/>
      <path class="st2" d="M327.7,623.17c-.15.08-.33.13-.59.13-.42,0-.69-.23-.69-.77-.45.53-1.06.77-1.76.77-.91,0-1.65-.4-1.65-1.4,0-1.13.84-1.38,1.69-1.54.91-.17,1.68-.11,1.68-.73,0-.72-.59-.83-1.11-.83-.7,0-1.21.21-1.25.95h-.82c.05-1.24,1-1.68,2.12-1.68.9,0,1.87.21,1.87,1.37v2.57c0,.39,0,.56.26.56.07,0,.15,0,.25-.05v.64ZM326.37,620.6c-.32.23-.94.24-1.49.34-.54.1-1,.29-1,.9,0,.55.47.74.96.74,1.09,0,1.53-.67,1.53-1.13v-.84Z"/>
      <path class="st2" d="M328.49,618.19h.82v.68h.02c.27-.55.91-.8,1.6-.8,1.54,0,2.3,1.22,2.3,2.63s-.75,2.6-2.28,2.6c-.52,0-1.25-.19-1.62-.78h-.02v2.58h-.82v-6.91ZM330.82,618.8c-1.1,0-1.53.95-1.53,1.88,0,.99.44,1.9,1.58,1.9s1.5-.96,1.5-1.93-.48-1.85-1.55-1.85Z"/>
      <path class="st2" d="M334.2,616.28h.82v2.64h.02c.27-.59.97-.85,1.57-.85,1.32,0,1.72.75,1.72,1.83v3.29h-.82v-3.38c0-.61-.39-1.01-1.01-1.01-1,0-1.48.67-1.48,1.56v2.82h-.82v-6.9Z"/>
      <path class="st2" d="M340.44,617.29h-.82v-1.01h.82v1.01ZM339.62,618.19h.82v4.99h-.82v-4.99Z"/>
      <path class="st2" d="M345.11,619.79c-.12-.63-.56-1-1.24-1-1.19,0-1.56.94-1.56,1.95,0,.92.41,1.83,1.46,1.83.79,0,1.27-.47,1.37-1.22h.84c-.19,1.22-.95,1.94-2.2,1.94-1.53,0-2.34-1.07-2.34-2.55s.78-2.68,2.36-2.68c1.13,0,2.04.53,2.16,1.73h-.85Z"/>
      <path class="st2" d="M356.21,623.18h-.82v-.68h-.02c-.27.55-.91.79-1.6.79-1.54,0-2.3-1.22-2.3-2.63s.75-2.6,2.28-2.6c.51,0,1.25.19,1.61.79h.02v-2.57h.82v6.9ZM353.89,622.57c1.1,0,1.53-.95,1.53-1.88,0-.98-.44-1.89-1.58-1.89s-1.5.96-1.5,1.93.48,1.85,1.55,1.85Z"/>
      <path class="st2" d="M361.73,621.6c-.22,1.1-1.01,1.7-2.14,1.7-1.6,0-2.35-1.1-2.4-2.63,0-1.5.99-2.6,2.35-2.6,1.77,0,2.31,1.66,2.26,2.86h-3.74c-.03.87.47,1.64,1.56,1.64.68,0,1.15-.32,1.29-.97h.81ZM360.94,620.2c-.04-.78-.63-1.41-1.44-1.41-.86,0-1.37.64-1.43,1.41h2.87Z"/>
      <path class="st2" d="M363.16,621.61c.03.74.66.97,1.34.97.51,0,1.21-.12,1.21-.74s-.81-.75-1.64-.93c-.81-.18-1.64-.45-1.64-1.41s1-1.42,1.87-1.42c1.1,0,1.98.35,2.05,1.57h-.83c-.05-.64-.62-.84-1.16-.84-.49,0-1.07.14-1.07.63,0,.59.87.69,1.64.87.82.19,1.64.45,1.64,1.43,0,1.19-1.11,1.57-2.13,1.57-1.12,0-2.07-.45-2.12-1.69h.82Z"/>
      <path class="st2" d="M368.36,617.29h-.82v-1.01h.82v1.01ZM367.54,618.19h.82v4.99h-.82v-4.99Z"/>
      <path class="st2" d="M373.95,622.75c0,1.63-.74,2.46-2.32,2.46-.94,0-2.02-.38-2.07-1.46h.83c.04.6.75.81,1.29.81,1.08,0,1.5-.77,1.5-1.89v-.33h-.02c-.27.62-.93.91-1.56.91-1.49,0-2.23-1.17-2.23-2.53,0-1.18.58-2.64,2.31-2.64.63,0,1.19.28,1.49.83h0,.02v-.71h.77v4.57ZM373.14,620.59c0-.88-.39-1.79-1.42-1.79s-1.48.86-1.48,1.81c0,.9.33,1.91,1.41,1.91s1.49-1,1.49-1.93Z"/>
      <path class="st2" d="M375.19,618.19h.77v.79h.02c.35-.62.91-.91,1.62-.91,1.32,0,1.72.75,1.72,1.83v3.29h-.82v-3.38c0-.61-.39-1.01-1.01-1.01-1,0-1.48.67-1.48,1.56v2.82h-.82v-4.99Z"/>
      <path class="st2" d="M385.55,616.28h1.25l2.18,5.8,2.18-5.8h1.25v6.9h-.87v-5.74h-.01l-2.16,5.74h-.78l-2.16-5.74h-.02v5.74h-.87v-6.9Z"/>
      <path class="st2" d="M395.97,618.07c1.59,0,2.42,1.15,2.42,2.62s-.84,2.61-2.42,2.61-2.43-1.15-2.43-2.61.84-2.62,2.43-2.62ZM395.97,622.57c.86,0,1.55-.67,1.55-1.88s-.7-1.89-1.55-1.89-1.56.67-1.56,1.89.7,1.88,1.56,1.88Z"/>
      <path class="st2" d="M399.33,618.19h.77v1.05h.02c.39-.8.95-1.2,1.83-1.17v.87c-1.33,0-1.81.75-1.81,2.02v2.23h-.82v-4.99Z"/>
      <path class="st2" d="M406.84,621.6c-.22,1.1-1.02,1.7-2.14,1.7-1.6,0-2.35-1.1-2.4-2.63,0-1.5.98-2.6,2.34-2.6,1.78,0,2.32,1.66,2.26,2.86h-3.74c-.03.87.46,1.64,1.56,1.64.68,0,1.15-.32,1.3-.97h.81ZM406.05,620.2c-.04-.78-.63-1.41-1.44-1.41-.86,0-1.37.64-1.43,1.41h2.87Z"/>
      <path class="st2" d="M407.95,622.11h1.07v1.07h-1.07v-1.07Z"/>
      <path class="st2" d="M410.64,622.11h1.07v1.07h-1.07v-1.07Z"/>
      <path class="st2" d="M413.33,622.11h1.07v1.07h-1.07v-1.07Z"/>
    </g>
    <g>
      <path class="st2" d="M393.82,460.36c-.83,0-.83,1.51-.83,1.51,0,17.04-13.81,30.86-30.86,30.86h-113.07c-7.16,0-12.96,5.8-12.96,12.96v97.89h145.52c7.16,0,12.95-5.8,12.95-12.96v-128.74s0-1.51-.75-1.51Z"/>
      <g>
        <path class="st2" d="M248.84,479.24h1.67l2.31,7.29h.03l2.36-7.29h1.64l-3.15,9.21h-1.79l-3.07-9.21Z"/>
        <path class="st2" d="M257.6,479.24h1.47v1.39h-1.47v-1.39ZM257.6,481.78h1.47v6.67h-1.47v-6.67Z"/>
        <path class="st2" d="M261.52,486.3c.08.86.72,1.16,1.51,1.16.55,0,1.52-.12,1.48-.88-.04-.78-1.11-.86-2.18-1.1-1.08-.24-2.14-.62-2.14-1.98,0-1.46,1.58-1.91,2.79-1.91,1.37,0,2.61.57,2.79,2.05h-1.53c-.13-.69-.71-.89-1.36-.89-.43,0-1.21.1-1.21.68,0,.72,1.08.83,2.17,1.07,1.07.24,2.16.63,2.16,1.95,0,1.59-1.6,2.17-2.98,2.17-1.68,0-2.92-.75-2.95-2.33h1.47Z"/>
        <path class="st2" d="M272.71,488.45h-1.44v-.93h-.03c-.36.68-1.16,1.11-1.9,1.11-1.74,0-2.49-.88-2.49-2.62v-4.24h1.47v4.09c0,1.17.48,1.6,1.28,1.6,1.22,0,1.64-.78,1.64-1.81v-3.88h1.47v6.67Z"/>
        <path class="st2" d="M279.59,486.97c0,.36.08.5.35.5.08,0,.2,0,.36-.02v1.02c-.22.08-.69.17-.93.17-.6,0-1.02-.21-1.13-.81-.58.57-1.52.81-2.31.81-1.2,0-2.29-.65-2.29-1.95,0-1.67,1.33-1.94,2.57-2.08,1.05-.19,2-.08,2-.94,0-.77-.79-.9-1.38-.9-.83,0-1.41.33-1.47,1.06h-1.47c.1-1.72,1.56-2.22,3.03-2.22,1.31,0,2.67.53,2.67,1.93v3.43ZM278.12,485.1c-.45.3-1.16.29-1.81.4-.63.11-1.2.34-1.2,1.11,0,.66.84.85,1.35.85.64,0,1.65-.33,1.65-1.26v-1.1Z"/>
        <path class="st2" d="M281.21,479.24h1.47v9.21h-1.47v-9.21Z"/>
        <path class="st2" d="M288.08,479.24h3.82c2.84,0,4.07,2.07,4.07,4.6s-1.23,4.61-4.07,4.61h-3.82v-9.21ZM289.69,487.13h1.59c2.53,0,3.07-1.44,3.07-3.29s-.54-3.29-3.07-3.29h-1.59v6.58Z"/>
        <path class="st2" d="M298.33,485.5c0,1.04.57,1.97,1.8,1.97.85,0,1.36-.37,1.62-1.11h1.39c-.33,1.46-1.56,2.27-3.02,2.27-2.1,0-3.27-1.46-3.27-3.51,0-1.89,1.24-3.52,3.22-3.52,2.1,0,3.39,1.89,3.15,3.9h-4.91ZM301.77,484.53c-.05-.94-.69-1.77-1.68-1.77s-1.72.77-1.76,1.77h3.44Z"/>
        <path class="st2" d="M305.47,486.3c.08.86.72,1.16,1.51,1.16.55,0,1.52-.12,1.48-.88-.04-.78-1.11-.86-2.18-1.1-1.08-.24-2.14-.62-2.14-1.98,0-1.46,1.58-1.91,2.78-1.91,1.37,0,2.61.57,2.79,2.05h-1.54c-.13-.69-.71-.89-1.35-.89-.43,0-1.22.1-1.22.68,0,.72,1.09.83,2.17,1.07,1.07.24,2.15.63,2.15,1.95,0,1.59-1.6,2.17-2.98,2.17-1.68,0-2.93-.75-2.96-2.33h1.47Z"/>
        <path class="st2" d="M311.1,479.24h1.47v1.39h-1.47v-1.39ZM311.1,481.78h1.47v6.67h-1.47v-6.67Z"/>
        <path class="st2" d="M320.07,488.1c0,2-1.17,2.99-3.28,2.99-1.34,0-2.85-.51-2.98-2.08h1.47c.19.84.86.98,1.6.98,1.19,0,1.71-.61,1.71-1.7v-1.01h-.03c-.41.73-1.17,1.17-2,1.17-2.12,0-3-1.6-3-3.51,0-1.79,1.13-3.34,3.02-3.34.84,0,1.6.35,1.98,1.09h.03v-.92h1.47v6.33ZM318.61,484.96c0-1.15-.52-2.2-1.79-2.2s-1.75,1.21-1.75,2.32.53,2.22,1.75,2.22c1.3,0,1.79-1.19,1.79-2.33Z"/>
        <path class="st2" d="M321.56,481.78h1.39v.98l.03.02c.44-.73,1.2-1.19,2.08-1.19,1.45,0,2.36.77,2.36,2.27v4.58h-1.47v-4.19c-.03-1.04-.44-1.5-1.31-1.5-.98,0-1.61.77-1.61,1.76v3.93h-1.47v-6.67Z"/>
        <path class="st2" d="M331.85,479.24h1.64l1.67,7.05h.02l1.86-7.05h1.64l1.81,7.05h.03l1.71-7.05h1.64l-2.54,9.21h-1.64l-1.84-7.04h-.03l-1.88,7.04h-1.67l-2.42-9.21Z"/>
        <path class="st2" d="M343.65,485.1c0-2.03,1.22-3.51,3.37-3.51s3.37,1.47,3.37,3.51-1.23,3.53-3.37,3.53-3.37-1.47-3.37-3.53ZM348.91,485.1c0-1.15-.58-2.34-1.9-2.34s-1.9,1.2-1.9,2.34.58,2.36,1.9,2.36,1.9-1.2,1.9-2.36Z"/>
        <path class="st2" d="M351.35,481.78h1.38v1.3h.03c.17-.71,1.04-1.47,1.95-1.47.33,0,.43.02.55.04v1.42c-.21-.02-.42-.06-.63-.06-1.01,0-1.81.81-1.81,2.28v3.17h-1.47v-6.67Z"/>
        <path class="st2" d="M355.93,479.24h1.47v5.24l2.66-2.7h1.8l-2.56,2.45,2.8,4.22h-1.79l-2.03-3.23-.88.85v2.39h-1.47v-9.21Z"/>
        <path class="st2" d="M363.67,486.3c.08.86.72,1.16,1.51,1.16.56,0,1.53-.12,1.48-.88-.04-.78-1.11-.86-2.18-1.1-1.08-.24-2.14-.62-2.14-1.98,0-1.46,1.57-1.91,2.79-1.91,1.36,0,2.61.57,2.79,2.05h-1.53c-.13-.69-.71-.89-1.36-.89-.42,0-1.21.1-1.21.68,0,.72,1.08.83,2.17,1.07,1.07.24,2.15.63,2.15,1.95,0,1.59-1.6,2.17-2.99,2.17-1.68,0-2.92-.75-2.95-2.33h1.47Z"/>
      </g>
      <g>
        <path class="st1" d="M251.03,554.59h18.45c8.88,0,10.76,5,10.76,8.45s-1.65,5.24-4.15,6.61c3.02,1.04,5.85,3.45,5.85,8.4,0,6.75-5.85,10.25-11.8,10.25h-19.12v-33.7ZM261.41,567.71h5.48c2.17,0,3.54-.61,3.54-2.78,0-1.7-1.41-2.31-3.54-2.31h-5.48v5.09ZM261.41,580.27h6.09c2.17,0,4.06-.62,4.06-3.22,0-1.98-1.18-3.07-3.63-3.07h-6.52v6.29Z"/>
        <path class="st1" d="M284.16,554.59h9.34v33.7h-9.34v-33.7Z"/>
        <path class="st1" d="M310.22,588.91c-9.21,0-13.36-6.09-13.36-12.89s4.15-12.84,13.36-12.84,13.36,6.04,13.36,12.84-4.15,12.89-13.36,12.89ZM310.22,569.97c-3.55,0-4.02,3.45-4.02,6.04s.47,6.09,4.02,6.09,4.01-3.49,4.01-6.09-.47-6.04-4.01-6.04Z"/>
        <path class="st1" d="M342.5,573.1c-.09-.99-.43-1.8-1.04-2.32-.57-.51-1.37-.8-2.36-.8-3.59,0-4.1,3.12-4.1,6.09s.52,6.04,4.1,6.04c2.03,0,3.45-1.65,3.63-3.59h8.92c-.9,6.66-6.14,10.39-12.74,10.39-7.36,0-13.27-5.1-13.27-12.84s5.91-12.89,13.27-12.89c6.42,0,11.89,3.16,12.46,9.92h-8.88Z"/>
        <path class="st1" d="M354.77,554.59h9.35v16.28l5.95-7.08h10.57l-8.73,9.25,10.1,15.25h-11.23l-5-8.88-1.65,1.79v7.09h-9.35v-33.7Z"/>
      </g>
      <g>
        <path class="st1" d="M250.65,517.17c0-2.47,1.62-4.14,4.14-4.14s4.14,1.67,4.14,4.14v25.91h13.84c2.38,0,4.29,1.21,4.29,3.49s-1.92,3.49-4.29,3.49h-17.27c-2.93,0-4.85-1.17-4.85-4.86v-28.02Z"/>
        <path class="st1" d="M281.66,512.83c2.12,0,3.84,1.71,3.84,3.84s-1.72,3.84-3.84,3.84-3.84-1.72-3.84-3.84,1.72-3.84,3.84-3.84ZM277.97,526.67c0-1.98.81-3.69,3.68-3.69s3.69,1.71,3.69,3.69v20.35c0,1.97-.81,3.68-3.69,3.68s-3.68-1.71-3.68-3.68v-20.35Z"/>
        <path class="st1" d="M313.58,556.81c0,2.43-1.47,3.69-3.69,3.69s-3.69-1.27-3.69-3.69v-9.85h-.1c-1.36,2.38-3.89,3.73-7.27,3.73-7.78,0-11.37-6.62-11.37-13.69,0-9.54,5.41-14.04,11.57-14.04,3.59,0,6.57,1.52,7.78,4.65h.1v-1.17c0-2.27,1.16-3.48,3.33-3.48s3.33,1.21,3.33,3.48v30.35ZM300.7,544.95c4.5.05,5.91-4.39,5.91-8.19,0-4.18-1.62-8.03-5.91-8.03-3.94.1-5.86,3.69-5.86,8.03,0,3.44,1.16,8.19,5.86,8.19Z"/>
        <path class="st1" d="M341.41,547.02c0,2.22-1.02,3.68-3.33,3.68s-3.33-1.46-3.33-3.68v-.96h-.11c-2.07,2.73-4.75,4.64-8.93,4.64-4.44,0-9.3-2.22-9.3-9.69v-14.34c0-1.98.81-3.69,3.69-3.69s3.69,1.71,3.69,3.69v12.87c0,2.98,1.46,5.11,4.64,5.11,2.57,0,5.61-2.12,5.61-5.81v-12.17c0-1.98.81-3.69,3.69-3.69s3.69,1.71,3.69,3.69v20.35Z"/>
        <path class="st1" d="M348.32,512.83c2.12,0,3.84,1.71,3.84,3.84s-1.71,3.84-3.84,3.84-3.83-1.72-3.83-3.84,1.72-3.84,3.83-3.84ZM344.63,526.67c0-1.98.81-3.69,3.68-3.69s3.69,1.71,3.69,3.69v20.35c0,1.97-.81,3.68-3.69,3.68s-3.68-1.71-3.68-3.68v-20.35Z"/>
        <path class="st1" d="M381.24,547.22c0,2.27-1.06,3.49-3.33,3.49s-3.33-1.21-3.33-3.49v-1.16h-.1c-1.21,3.13-4.19,4.64-7.77,4.64-6.16,0-11.57-4.49-11.57-14.04,0-7.06,3.58-13.69,11.36-13.69,3.28,0,5.81,1.36,7.27,3.74h.1v-10c0-2.42,1.46-3.68,3.69-3.68s3.69,1.26,3.69,3.68v30.5ZM368.37,544.95c4.29,0,5.91-3.84,5.91-8.03,0-3.78-1.41-8.23-5.91-8.18-4.7,0-5.86,4.74-5.86,8.18,0,4.35,1.92,7.93,5.86,8.03Z"/>
      </g>
      <path class="st2" d="M369.92,445.64c0,1.6-1.29,2.89-2.89,2.89s-2.89-1.29-2.89-2.89,1.3-2.89,2.89-2.89,2.89,1.29,2.89,2.89Z"/>
      <path class="st2" d="M372.66,438.31c0,.76-.61,1.37-1.37,1.37s-1.37-.6-1.37-1.37.61-1.37,1.37-1.37,1.37.62,1.37,1.37Z"/>
      <path class="st2" d="M374.91,450.55c0,.76-.61,1.37-1.36,1.37s-1.37-.61-1.37-1.37.61-1.36,1.37-1.36,1.36.6,1.36,1.36Z"/>
      <path class="st2" d="M374.41,444.17c1.73,5.62,7.78,5.3,12.92,7.21,3.32,1.24,5.05,5.18,5.49,6.24.34.82,1.2,1.25,1.14-.25,0,0-.29-5.25-1.56-9.94-1.12-4.14-2.84-8-2.84-8,0,0-3.25-6.75-10.2-4.61-6.95,2.14-4.95,9.36-4.95,9.36Z"/>
      <path class="st2" d="M379.8,460.63c2.67,1.66,4.99-.61,7.73-1.65,1.77-.67,3.85.36,4.37.67.59.35,1.1-.2.43-.67l-8.33-5.15s-3.46-2.02-5.5,1.29c-2.05,3.31,1.3,5.51,1.3,5.51Z"/>
    </g>
  </g>
</svg>